<svg width="34" height="38" viewBox="0 0 34 38" fill="none" xmlns="http://www.w3.org/2000/svg">
<path d="M32.6252 9.23438C33.0566 9.23438 33.4064 8.88453 33.4064 8.45313V1.42188C33.4064 0.990469 33.0566 0.640625 32.6252 0.640625H1.375C0.943594 0.640625 0.59375 0.990469 0.59375 1.42188V8.45313C0.59375 8.88453 0.943594 9.23438 1.375 9.23438H4.5V10.0156H1.375C0.943594 10.0156 0.59375 10.3655 0.59375 10.7969V17.8281C0.59375 18.2595 0.943594 18.6094 1.375 18.6094H4.5V19.3906H1.375C0.943594 19.3906 0.59375 19.7405 0.59375 20.1719V27.2031C0.59375 27.6345 0.943594 27.9844 1.375 27.9844H4.5V28.7656H1.375C0.943594 28.7656 0.59375 29.1155 0.59375 29.5469V36.5782C0.59375 37.0096 0.943594 37.3595 1.375 37.3595H32.6252C33.0566 37.3595 33.4064 37.0096 33.4064 36.5782V29.547C33.4064 29.1156 33.0566 28.7657 32.6252 28.7657H29.5002V27.9845H32.6252C33.0566 27.9845 33.4064 27.6345 33.4064 27.2032V20.172C33.4064 19.7406 33.0566 19.3907 32.6252 19.3907H29.5002V18.6095H32.6252C33.0566 18.6095 33.4064 18.2596 33.4064 17.8282V10.797C33.4064 10.3655 33.0566 10.0157 32.6252 10.0157H29.5002V9.23445L32.6252 9.23438ZM2.15625 2.20313H31.8439V7.67188H2.15625V2.20313ZM31.8439 35.797H2.15625V30.3282H31.8439V35.797ZM27.9377 28.7657H6.0625V27.9845H27.9377V28.7657ZM31.8439 26.422H2.15625V20.9532H31.8439V26.422ZM27.9377 19.3907H6.0625V18.6095H27.9377V19.3907ZM31.8439 17.047H2.15625V11.5782H31.8439V17.047ZM27.9377 10.0156H6.0625V9.23438H27.9377V10.0156Z" fill="#573DB8"/>
</svg>
