<svg width="13" height="13" viewBox="0 0 13 13" fill="none" xmlns="http://www.w3.org/2000/svg">
<path d="M12.75 3.25C12.75 4.69922 11.5742 5.875 10.125 5.875C9.41406 5.875 8.75781 5.60156 8.29297 5.16406L5.72266 6.44922C5.72266 6.53125 5.72266 6.64062 5.72266 6.75C5.72266 6.85938 5.72266 6.96875 5.72266 7.07812L8.29297 8.36328C8.75781 7.92578 9.41406 7.625 10.125 7.625C11.5742 7.625 12.75 8.80078 12.75 10.25C12.75 11.6992 11.5742 12.875 10.125 12.875C8.64844 12.875 7.5 11.6992 7.5 10.25C7.5 10.1406 7.5 10.0312 7.5 9.94922L4.92969 8.66406C4.46484 9.10156 3.80859 9.375 3.125 9.375C1.64844 9.375 0.5 8.19922 0.5 6.75C0.5 5.30078 1.64844 4.125 3.125 4.125C3.80859 4.125 4.46484 4.42578 4.92969 4.86328L7.5 3.57812C7.5 3.46875 7.5 3.35938 7.5 3.25C7.5 1.80078 8.64844 0.625 10.125 0.625C11.5742 0.625 12.75 1.80078 12.75 3.25ZM3.09766 7.625C3.58984 7.625 3.97266 7.24219 3.97266 6.75C3.97266 6.28516 3.58984 5.875 3.09766 5.875C2.63281 5.875 2.22266 6.28516 2.22266 6.75C2.22266 7.24219 2.63281 7.625 3.09766 7.625ZM10.125 2.375C9.63281 2.375 9.25 2.78516 9.25 3.25C9.25 3.74219 9.63281 4.125 10.125 4.125C10.5898 4.125 11 3.74219 11 3.25C11 2.78516 10.5898 2.375 10.125 2.375ZM10.125 11.125C10.5898 11.125 11 10.7422 11 10.25C11 9.78516 10.5898 9.375 10.125 9.375C9.63281 9.375 9.25 9.78516 9.25 10.25C9.25 10.7422 9.63281 11.125 10.125 11.125Z" fill="#07000E"/>
</svg>
